<mxfile host="app.diagrams.net" modified="2021-10-08T09:33:39.317Z" agent="5.0 (Macintosh; Intel Mac OS X 10_15_7) AppleWebKit/605.1.15 (KHTML, like Gecko) Version/15.0 Safari/605.1.15" etag="4VCv3Fd9CLClEQR3GSTs" version="15.4.3" type="github">
  <diagram id="KD9iu_JgUH0H1Sbimxe_" name="Page-1">
    <mxGraphModel dx="1224" dy="832" grid="1" gridSize="10" guides="1" tooltips="1" connect="1" arrows="1" fold="1" page="1" pageScale="1" pageWidth="850" pageHeight="1100" math="0" shadow="0">
      <root>
        <mxCell id="0" />
        <mxCell id="1" parent="0" />
        <mxCell id="NVGKtGSdyv566THV7a4j-32" value="反馈" style="edgeStyle=orthogonalEdgeStyle;rounded=0;orthogonalLoop=1;jettySize=auto;html=1;entryX=0;entryY=0.5;entryDx=0;entryDy=0;entryPerimeter=0;" parent="1" source="NVGKtGSdyv566THV7a4j-1" target="NVGKtGSdyv566THV7a4j-11" edge="1">
          <mxGeometry relative="1" as="geometry">
            <mxPoint x="550" y="110" as="targetPoint" />
          </mxGeometry>
        </mxCell>
        <mxCell id="NVGKtGSdyv566THV7a4j-1" value="接入层" style="rounded=0;whiteSpace=wrap;html=1;" parent="1" vertex="1">
          <mxGeometry x="360" y="80" width="120" height="60" as="geometry" />
        </mxCell>
        <mxCell id="NVGKtGSdyv566THV7a4j-17" value="" style="edgeStyle=orthogonalEdgeStyle;rounded=0;orthogonalLoop=1;jettySize=auto;html=1;" parent="1" source="NVGKtGSdyv566THV7a4j-2" target="NVGKtGSdyv566THV7a4j-4" edge="1">
          <mxGeometry relative="1" as="geometry" />
        </mxCell>
        <mxCell id="NVGKtGSdyv566THV7a4j-23" value="异常" style="edgeLabel;html=1;align=center;verticalAlign=middle;resizable=0;points=[];" parent="NVGKtGSdyv566THV7a4j-17" vertex="1" connectable="0">
          <mxGeometry x="-0.05" y="2" relative="1" as="geometry">
            <mxPoint as="offset" />
          </mxGeometry>
        </mxCell>
        <mxCell id="NVGKtGSdyv566THV7a4j-33" style="edgeStyle=orthogonalEdgeStyle;rounded=0;orthogonalLoop=1;jettySize=auto;html=1;entryX=0;entryY=0.5;entryDx=0;entryDy=0;entryPerimeter=0;" parent="1" source="NVGKtGSdyv566THV7a4j-2" target="NVGKtGSdyv566THV7a4j-10" edge="1">
          <mxGeometry relative="1" as="geometry">
            <mxPoint x="550" y="230" as="targetPoint" />
          </mxGeometry>
        </mxCell>
        <mxCell id="NVGKtGSdyv566THV7a4j-34" value="上报" style="edgeLabel;html=1;align=center;verticalAlign=middle;resizable=0;points=[];" parent="NVGKtGSdyv566THV7a4j-33" vertex="1" connectable="0">
          <mxGeometry y="4" relative="1" as="geometry">
            <mxPoint as="offset" />
          </mxGeometry>
        </mxCell>
        <mxCell id="NVGKtGSdyv566THV7a4j-2" value="在线推荐" style="rounded=0;whiteSpace=wrap;html=1;fillColor=#dae8fc;strokeColor=#6c8ebf;" parent="1" vertex="1">
          <mxGeometry x="360" y="200" width="120" height="60" as="geometry" />
        </mxCell>
        <mxCell id="NVGKtGSdyv566THV7a4j-4" value="监控/告警" style="rounded=0;whiteSpace=wrap;html=1;" parent="1" vertex="1">
          <mxGeometry x="200" y="200" width="120" height="60" as="geometry" />
        </mxCell>
        <mxCell id="NVGKtGSdyv566THV7a4j-21" style="edgeStyle=orthogonalEdgeStyle;rounded=0;orthogonalLoop=1;jettySize=auto;html=1;entryX=0.5;entryY=0;entryDx=0;entryDy=0;" parent="1" source="NVGKtGSdyv566THV7a4j-5" target="NVGKtGSdyv566THV7a4j-2" edge="1">
          <mxGeometry relative="1" as="geometry">
            <Array as="points">
              <mxPoint x="260" y="170" />
              <mxPoint x="420" y="170" />
            </Array>
          </mxGeometry>
        </mxCell>
        <mxCell id="NVGKtGSdyv566THV7a4j-22" value="下发" style="edgeLabel;html=1;align=center;verticalAlign=middle;resizable=0;points=[];" parent="NVGKtGSdyv566THV7a4j-21" vertex="1" connectable="0">
          <mxGeometry x="-0.3182" y="3" relative="1" as="geometry">
            <mxPoint as="offset" />
          </mxGeometry>
        </mxCell>
        <mxCell id="NVGKtGSdyv566THV7a4j-5" value="配置管理" style="rounded=0;whiteSpace=wrap;html=1;" parent="1" vertex="1">
          <mxGeometry x="200" y="80" width="120" height="60" as="geometry" />
        </mxCell>
        <mxCell id="NVGKtGSdyv566THV7a4j-29" style="edgeStyle=orthogonalEdgeStyle;rounded=0;orthogonalLoop=1;jettySize=auto;html=1;exitX=0.5;exitY=0;exitDx=0;exitDy=0;" parent="1" source="NVGKtGSdyv566THV7a4j-8" edge="1">
          <mxGeometry relative="1" as="geometry">
            <mxPoint x="420" y="260" as="targetPoint" />
            <Array as="points">
              <mxPoint x="338" y="310" />
              <mxPoint x="420" y="310" />
            </Array>
          </mxGeometry>
        </mxCell>
        <mxCell id="NVGKtGSdyv566THV7a4j-8" value="索引" style="shape=document;whiteSpace=wrap;html=1;boundedLbl=1;size=0.16666666666666666;" parent="1" vertex="1">
          <mxGeometry x="278" y="360" width="120" height="60" as="geometry" />
        </mxCell>
        <mxCell id="NVGKtGSdyv566THV7a4j-30" style="edgeStyle=orthogonalEdgeStyle;rounded=0;orthogonalLoop=1;jettySize=auto;html=1;entryX=0.5;entryY=1;entryDx=0;entryDy=0;" parent="1" source="NVGKtGSdyv566THV7a4j-9" target="NVGKtGSdyv566THV7a4j-2" edge="1">
          <mxGeometry relative="1" as="geometry">
            <mxPoint x="420" y="361" as="targetPoint" />
          </mxGeometry>
        </mxCell>
        <mxCell id="NVGKtGSdyv566THV7a4j-9" value="模型" style="shape=document;whiteSpace=wrap;html=1;boundedLbl=1;size=0.16666666666666666;" parent="1" vertex="1">
          <mxGeometry x="440" y="360" width="120" height="60" as="geometry" />
        </mxCell>
        <mxCell id="NVGKtGSdyv566THV7a4j-36" style="edgeStyle=orthogonalEdgeStyle;rounded=0;orthogonalLoop=1;jettySize=auto;html=1;entryX=0.5;entryY=0;entryDx=0;entryDy=0;" parent="1" source="NVGKtGSdyv566THV7a4j-10" target="NVGKtGSdyv566THV7a4j-12" edge="1">
          <mxGeometry relative="1" as="geometry">
            <Array as="points">
              <mxPoint x="660" y="230" />
            </Array>
          </mxGeometry>
        </mxCell>
        <mxCell id="NVGKtGSdyv566THV7a4j-10" value="基础数据" style="shape=cylinder3;whiteSpace=wrap;html=1;boundedLbl=1;backgroundOutline=1;size=15;" parent="1" vertex="1">
          <mxGeometry x="560" y="200" width="80" height="60" as="geometry" />
        </mxCell>
        <mxCell id="NVGKtGSdyv566THV7a4j-35" style="edgeStyle=orthogonalEdgeStyle;rounded=0;orthogonalLoop=1;jettySize=auto;html=1;entryX=0.5;entryY=0;entryDx=0;entryDy=0;" parent="1" source="NVGKtGSdyv566THV7a4j-11" target="NVGKtGSdyv566THV7a4j-12" edge="1">
          <mxGeometry relative="1" as="geometry">
            <Array as="points">
              <mxPoint x="660" y="110" />
            </Array>
          </mxGeometry>
        </mxCell>
        <mxCell id="NVGKtGSdyv566THV7a4j-38" value="拼接" style="edgeLabel;html=1;align=center;verticalAlign=middle;resizable=0;points=[];" parent="NVGKtGSdyv566THV7a4j-35" vertex="1" connectable="0">
          <mxGeometry x="0.3852" relative="1" as="geometry">
            <mxPoint as="offset" />
          </mxGeometry>
        </mxCell>
        <mxCell id="NVGKtGSdyv566THV7a4j-11" value="用户行为" style="shape=cylinder3;whiteSpace=wrap;html=1;boundedLbl=1;backgroundOutline=1;size=15;" parent="1" vertex="1">
          <mxGeometry x="560" y="80" width="80" height="60" as="geometry" />
        </mxCell>
        <mxCell id="NVGKtGSdyv566THV7a4j-37" value="" style="edgeStyle=orthogonalEdgeStyle;rounded=0;orthogonalLoop=1;jettySize=auto;html=1;" parent="1" source="NVGKtGSdyv566THV7a4j-12" target="NVGKtGSdyv566THV7a4j-9" edge="1">
          <mxGeometry relative="1" as="geometry" />
        </mxCell>
        <mxCell id="NVGKtGSdyv566THV7a4j-39" value="训练" style="edgeLabel;html=1;align=center;verticalAlign=middle;resizable=0;points=[];" parent="NVGKtGSdyv566THV7a4j-37" vertex="1" connectable="0">
          <mxGeometry x="-0.1" y="-2" relative="1" as="geometry">
            <mxPoint as="offset" />
          </mxGeometry>
        </mxCell>
        <mxCell id="NVGKtGSdyv566THV7a4j-12" value="离线训练" style="rounded=0;whiteSpace=wrap;html=1;" parent="1" vertex="1">
          <mxGeometry x="600" y="360" width="120" height="60" as="geometry" />
        </mxCell>
        <mxCell id="NVGKtGSdyv566THV7a4j-43" style="edgeStyle=orthogonalEdgeStyle;rounded=0;orthogonalLoop=1;jettySize=auto;html=1;exitX=0.5;exitY=0;exitDx=0;exitDy=0;entryX=0.5;entryY=1;entryDx=0;entryDy=0;" parent="1" source="NVGKtGSdyv566THV7a4j-13" target="NVGKtGSdyv566THV7a4j-4" edge="1">
          <mxGeometry relative="1" as="geometry">
            <Array as="points">
              <mxPoint x="114" y="280" />
              <mxPoint x="260" y="280" />
            </Array>
          </mxGeometry>
        </mxCell>
        <mxCell id="NVGKtGSdyv566THV7a4j-49" value="检查" style="edgeLabel;html=1;align=center;verticalAlign=middle;resizable=0;points=[];" parent="NVGKtGSdyv566THV7a4j-43" vertex="1" connectable="0">
          <mxGeometry x="0.0395" y="-3" relative="1" as="geometry">
            <mxPoint y="-4" as="offset" />
          </mxGeometry>
        </mxCell>
        <mxCell id="NVGKtGSdyv566THV7a4j-44" style="edgeStyle=orthogonalEdgeStyle;rounded=0;orthogonalLoop=1;jettySize=auto;html=1;entryX=0.5;entryY=1;entryDx=0;entryDy=0;" parent="1" source="NVGKtGSdyv566THV7a4j-13" target="NVGKtGSdyv566THV7a4j-2" edge="1">
          <mxGeometry relative="1" as="geometry">
            <Array as="points">
              <mxPoint x="420" y="310" />
            </Array>
          </mxGeometry>
        </mxCell>
        <mxCell id="NVGKtGSdyv566THV7a4j-48" value="加载" style="edgeLabel;html=1;align=center;verticalAlign=middle;resizable=0;points=[];" parent="NVGKtGSdyv566THV7a4j-44" vertex="1" connectable="0">
          <mxGeometry x="-0.2333" y="2" relative="1" as="geometry">
            <mxPoint x="54" as="offset" />
          </mxGeometry>
        </mxCell>
        <mxCell id="NVGKtGSdyv566THV7a4j-13" value="cron" style="ellipse;whiteSpace=wrap;html=1;" parent="1" vertex="1">
          <mxGeometry x="60" y="291" width="108" height="56" as="geometry" />
        </mxCell>
        <mxCell id="NVGKtGSdyv566THV7a4j-14" value="" style="endArrow=none;dashed=1;html=1;dashPattern=1 3;strokeWidth=2;rounded=0;edgeStyle=orthogonalEdgeStyle;" parent="1" edge="1">
          <mxGeometry width="50" height="50" relative="1" as="geometry">
            <mxPoint x="170" y="320" as="sourcePoint" />
            <mxPoint x="680" y="320" as="targetPoint" />
          </mxGeometry>
        </mxCell>
        <mxCell id="NVGKtGSdyv566THV7a4j-15" value="" style="endArrow=classic;html=1;rounded=0;edgeStyle=orthogonalEdgeStyle;exitX=0.5;exitY=1;exitDx=0;exitDy=0;" parent="1" source="NVGKtGSdyv566THV7a4j-1" edge="1">
          <mxGeometry relative="1" as="geometry">
            <mxPoint x="330" y="460" as="sourcePoint" />
            <mxPoint x="420" y="200" as="targetPoint" />
          </mxGeometry>
        </mxCell>
        <mxCell id="NVGKtGSdyv566THV7a4j-16" value="请求" style="edgeLabel;resizable=0;html=1;align=center;verticalAlign=middle;" parent="NVGKtGSdyv566THV7a4j-15" connectable="0" vertex="1">
          <mxGeometry relative="1" as="geometry" />
        </mxCell>
        <mxCell id="NVGKtGSdyv566THV7a4j-31" style="edgeStyle=orthogonalEdgeStyle;rounded=0;orthogonalLoop=1;jettySize=auto;html=1;exitX=0.5;exitY=1;exitDx=0;exitDy=0;exitPerimeter=0;" parent="1" source="NVGKtGSdyv566THV7a4j-10" target="NVGKtGSdyv566THV7a4j-10" edge="1">
          <mxGeometry relative="1" as="geometry" />
        </mxCell>
        <mxCell id="NVGKtGSdyv566THV7a4j-41" style="edgeStyle=orthogonalEdgeStyle;rounded=0;orthogonalLoop=1;jettySize=auto;html=1;entryX=0;entryY=0.5;entryDx=0;entryDy=0;" parent="1" source="NVGKtGSdyv566THV7a4j-40" target="NVGKtGSdyv566THV7a4j-8" edge="1">
          <mxGeometry relative="1" as="geometry">
            <mxPoint x="270" y="380" as="targetPoint" />
          </mxGeometry>
        </mxCell>
        <mxCell id="NVGKtGSdyv566THV7a4j-42" value="汇总拼接" style="edgeLabel;html=1;align=center;verticalAlign=middle;resizable=0;points=[];" parent="NVGKtGSdyv566THV7a4j-41" vertex="1" connectable="0">
          <mxGeometry x="-0.0513" y="4" relative="1" as="geometry">
            <mxPoint as="offset" />
          </mxGeometry>
        </mxCell>
        <mxCell id="NVGKtGSdyv566THV7a4j-40" value="cms" style="rounded=0;whiteSpace=wrap;html=1;" parent="1" vertex="1">
          <mxGeometry x="80" y="360" width="120" height="60" as="geometry" />
        </mxCell>
      </root>
    </mxGraphModel>
  </diagram>
</mxfile>
